<svg width="100" height="60" viewBox="0 0 100 60" xmlns="http://www.w3.org/2000/svg">
  <rect width="100" height="60" rx="8" fill="#5e6472"/>
  <path d="M30,15 L55,15 C65,15 70,25 70,30 C70,35 65,45 55,45 L30,45 C20,45 15,35 15,30 C15,25 20,15 30,15 Z" fill="url(#gradient1)"/>
  <path d="M40,10 L65,10 C75,10 80,20 80,25 C80,30 75,40 65,40 L40,40 C30,40 25,30 25,25 C25,20 30,10 40,10 Z" fill="url(#gradient2)"/>
  <defs>
    <linearGradient id="gradient1" x1="0%" y1="0%" x2="100%" y2="100%">
      <stop offset="0%" stop-color="#FFDD00"/>
      <stop offset="100%" stop-color="#FF8800"/>
    </linearGradient>
    <linearGradient id="gradient2" x1="0%" y1="0%" x2="100%" y2="100%">
      <stop offset="0%" stop-color="#FFDD00"/>
      <stop offset="100%" stop-color="#FF8800"/>
    </linearGradient>
  </defs>
</svg> 